<mxfile host="app.diagrams.net" modified="2022-08-07T04:18:06.454Z" agent="5.0 (Macintosh; Intel Mac OS X 10_15_7) AppleWebKit/537.36 (KHTML, like Gecko) Chrome/104.0.0.0 Safari/537.36" etag="enWkOYopk8c8OLB6abi8" version="20.2.3" type="github">
  <diagram id="NJpECbtZ2tN2SRkLAfTV" name="Page-1">
    <mxGraphModel dx="916" dy="1161" grid="1" gridSize="10" guides="1" tooltips="1" connect="1" arrows="1" fold="1" page="1" pageScale="1" pageWidth="850" pageHeight="1100" math="0" shadow="0">
      <root>
        <mxCell id="0" />
        <mxCell id="1" parent="0" />
        <mxCell id="LHGNEUXxpQOPNhy5yb0M-3" value="" style="edgeStyle=orthogonalEdgeStyle;rounded=0;orthogonalLoop=1;jettySize=auto;html=1;" parent="1" source="LHGNEUXxpQOPNhy5yb0M-1" target="LHGNEUXxpQOPNhy5yb0M-2" edge="1">
          <mxGeometry relative="1" as="geometry" />
        </mxCell>
        <mxCell id="LHGNEUXxpQOPNhy5yb0M-1" value="Controller" style="rounded=0;whiteSpace=wrap;html=1;" parent="1" vertex="1">
          <mxGeometry x="365" y="200" width="120" height="60" as="geometry" />
        </mxCell>
        <mxCell id="LHGNEUXxpQOPNhy5yb0M-5" value="" style="edgeStyle=orthogonalEdgeStyle;rounded=0;orthogonalLoop=1;jettySize=auto;html=1;" parent="1" source="LHGNEUXxpQOPNhy5yb0M-2" target="LHGNEUXxpQOPNhy5yb0M-4" edge="1">
          <mxGeometry relative="1" as="geometry" />
        </mxCell>
        <mxCell id="LHGNEUXxpQOPNhy5yb0M-9" style="edgeStyle=orthogonalEdgeStyle;rounded=0;orthogonalLoop=1;jettySize=auto;html=1;exitX=0.75;exitY=0;exitDx=0;exitDy=0;entryX=0.75;entryY=1;entryDx=0;entryDy=0;" parent="1" source="LHGNEUXxpQOPNhy5yb0M-2" target="LHGNEUXxpQOPNhy5yb0M-1" edge="1">
          <mxGeometry relative="1" as="geometry" />
        </mxCell>
        <mxCell id="LHGNEUXxpQOPNhy5yb0M-11" value="DTO" style="edgeLabel;html=1;align=center;verticalAlign=middle;resizable=0;points=[];" parent="LHGNEUXxpQOPNhy5yb0M-9" vertex="1" connectable="0">
          <mxGeometry x="-0.125" y="-1" relative="1" as="geometry">
            <mxPoint as="offset" />
          </mxGeometry>
        </mxCell>
        <mxCell id="LHGNEUXxpQOPNhy5yb0M-2" value="Service" style="rounded=0;whiteSpace=wrap;html=1;" parent="1" vertex="1">
          <mxGeometry x="365" y="340" width="120" height="60" as="geometry" />
        </mxCell>
        <mxCell id="LHGNEUXxpQOPNhy5yb0M-7" value="" style="edgeStyle=orthogonalEdgeStyle;rounded=0;orthogonalLoop=1;jettySize=auto;html=1;" parent="1" source="LHGNEUXxpQOPNhy5yb0M-4" target="LHGNEUXxpQOPNhy5yb0M-6" edge="1">
          <mxGeometry relative="1" as="geometry" />
        </mxCell>
        <mxCell id="LHGNEUXxpQOPNhy5yb0M-8" style="edgeStyle=orthogonalEdgeStyle;rounded=0;orthogonalLoop=1;jettySize=auto;html=1;exitX=0.75;exitY=0;exitDx=0;exitDy=0;entryX=0.75;entryY=1;entryDx=0;entryDy=0;" parent="1" source="LHGNEUXxpQOPNhy5yb0M-4" target="LHGNEUXxpQOPNhy5yb0M-2" edge="1">
          <mxGeometry relative="1" as="geometry" />
        </mxCell>
        <mxCell id="LHGNEUXxpQOPNhy5yb0M-10" value="Entity" style="edgeLabel;html=1;align=center;verticalAlign=middle;resizable=0;points=[];" parent="LHGNEUXxpQOPNhy5yb0M-8" vertex="1" connectable="0">
          <mxGeometry x="-0.075" y="-1" relative="1" as="geometry">
            <mxPoint as="offset" />
          </mxGeometry>
        </mxCell>
        <mxCell id="LHGNEUXxpQOPNhy5yb0M-4" value="Repository" style="rounded=0;whiteSpace=wrap;html=1;" parent="1" vertex="1">
          <mxGeometry x="365" y="480" width="120" height="60" as="geometry" />
        </mxCell>
        <mxCell id="LHGNEUXxpQOPNhy5yb0M-6" value="DB" style="shape=cylinder3;whiteSpace=wrap;html=1;boundedLbl=1;backgroundOutline=1;size=15;" parent="1" vertex="1">
          <mxGeometry x="395" y="610" width="60" height="80" as="geometry" />
        </mxCell>
      </root>
    </mxGraphModel>
  </diagram>
</mxfile>
